<svg width="162" height="33" viewBox="0 0 162 33" fill="none" xmlns="http://www.w3.org/2000/svg">
<path d="M13.569 16.6003C3.87105 17.2124 0.614232 25.3397 0.198069 29.3268C-1.21957 15.1504 10.5082 10.5995 15.1397 10.4786H32.2964V10.5995C33.2629 23.0441 26.4567 28.2369 24.6846 29.3268C14.5356 35.5693 6.48079 29.6088 3.01724 26.266C8.53477 29.6088 13.569 28.4811 15.2202 27.9575C22.0829 25.9922 24.3893 19.5671 24.6846 16.6003C23.0334 16.5869 18.4985 16.5681 13.569 16.6003Z" fill="#FF7C08"/>
<path d="M15.9047 7.78033C5.53014 8.26362 1.1913 16.1976 0.318697 20.1042C-2.37965 3.3502 12.8983 0.542564 14.4951 0.329656C16.9116 0.00746442 26.5773 0.00746573 32.1754 0.329656C32.4573 7.09568 24.9664 7.86088 23.7178 7.86088C22.0264 7.86088 17.4351 7.70904 15.9047 7.78033Z" fill="#4EB529"/>
<path d="M32.2193 10.6398C30.3667 30.3337 15.8278 32.7099 9.26312 30.6156C16.4158 33.9986 23.1174 30.8439 25.5741 28.8436C32.5012 22.9797 32.5415 14.4658 32.3401 10.6398H32.2193Z" fill="#B45400"/>
<path d="M15.3849 7.94131C5.51783 8.58569 1.38304 16.0632 0.322495 20.0638C1.40989 14.5865 6.20249 10.1966 7.08851 9.63281C12.0825 5.56515 16.8751 6.81364 24.0438 6.16926C29.7788 5.65375 31.8436 2.04789 32.1389 0.369812C32.5416 7.41775 24.6077 7.94131 23.4397 7.94131H15.3849Z" fill="#288E04"/>
<path d="M46.2319 16.0842C46.2319 14.1881 46.8461 12.6124 48.1013 11.3306C49.3564 10.0487 50.8786 9.40775 52.6679 9.40775C54.1902 9.40775 55.3919 9.78163 56.2999 10.5294C57.2346 11.2504 57.8755 12.105 58.2761 13.0931L62.0951 11.2237C61.5342 9.70151 60.4393 8.33952 58.8102 7.13777C57.1812 5.93601 55.1516 5.32178 52.7213 5.32178C49.7036 5.32178 47.1398 6.3633 45.0034 8.44635C42.8936 10.5294 41.8254 13.0931 41.8254 16.1109C41.8254 19.1286 42.8402 21.6924 44.8432 23.7754C46.8728 25.8318 49.49 26.8733 52.6679 26.8733C56.1664 26.8733 59.2375 25.4579 61.1336 22.3867C62.0951 20.8378 62.5758 19.0218 62.5758 16.9388V15.3097H51.7065V19.2355H58.0625C57.5284 21.3452 55.4453 22.7606 52.6679 22.7606C50.7985 22.7606 49.2496 22.1197 48.0478 20.8111C46.8461 19.5025 46.2319 17.9269 46.2319 16.0842Z" fill="#212B36"/>
<path d="M74.5245 12.2386C74.3108 12.1584 74.0438 12.1317 73.6966 12.1317C71.8005 12.1317 70.2783 13.1733 69.664 14.4818H69.6373V12.292H65.4979V26.5528H69.664V20.5173C69.664 17.9536 70.8391 16.2711 73.5364 16.2711C73.8835 16.2711 74.204 16.2978 74.5245 16.3512V12.2386Z" fill="#212B36"/>
<path d="M75.6484 19.4491C75.6484 21.5856 76.3962 23.3481 77.8917 24.7635C79.3872 26.1789 81.2299 26.8733 83.4198 26.8733C85.5829 26.8733 87.4256 26.1522 88.9479 24.7368C90.4701 23.2947 91.2178 21.5054 91.2178 19.369C91.2178 17.2592 90.4701 15.5234 88.9746 14.108C87.479 12.6926 85.6364 11.9715 83.4732 11.9715C81.31 11.9715 79.4406 12.6926 77.9184 14.1347C76.3962 15.5501 75.6484 17.3394 75.6484 19.4491ZM79.9213 19.3957C79.9213 18.3542 80.2685 17.4729 80.9361 16.8052C81.6038 16.1109 82.4317 15.7637 83.4198 15.7637C84.4079 15.7637 85.2625 16.1109 85.9301 16.8052C86.5978 17.4729 86.9449 18.3542 86.9449 19.3957C86.9449 21.5321 85.4494 23.0544 83.4465 23.0544C82.4584 23.0544 81.6038 22.7072 80.9361 22.0396C80.2685 21.3452 79.9213 20.4639 79.9213 19.3957Z" fill="#212B36"/>
<path d="M104.921 22.2532C104.921 19.7696 103.025 18.3542 99.4201 17.6064C98.1649 17.3394 97.5507 16.9121 97.5507 16.2978C97.5507 15.737 98.1916 15.2563 99.0462 15.2563C100.248 15.2563 101.103 15.7103 101.637 16.6183L104.654 14.829C103.72 13.0931 101.797 11.9448 99.153 11.9448C97.6575 11.9448 96.3756 12.3721 95.2807 13.2267C94.2124 14.0545 93.6783 15.1495 93.6783 16.4581C93.6783 18.7815 95.3608 20.3304 98.7524 21.0782C100.568 21.4787 101.022 21.906 101.022 22.4669C101.022 23.0277 100.328 23.5084 99.2865 23.5084C97.7376 23.5084 96.6694 22.9208 96.0818 21.7725L93.0107 23.5885C94.159 25.7784 96.2421 26.8733 99.2331 26.8733C102.758 26.8733 104.921 25.0039 104.921 22.2532Z" fill="#212B36"/>
<path d="M116.404 23.0277C116.11 23.1078 115.789 23.1345 115.442 23.1345C113.813 23.1345 112.959 22.4936 112.959 20.8645V15.8972H116.484V12.292H112.959V7.83211H108.846V12.292H106.229V15.8972H108.793V21.3719C108.793 24.7101 110.742 26.7398 114.454 26.7398C115.148 26.7398 115.789 26.6596 116.404 26.4727V23.0277Z" fill="#212B36"/>
<path d="M118.55 19.4491C118.55 21.5856 119.297 23.3481 120.793 24.7635C122.288 26.1789 124.131 26.8733 126.321 26.8733C128.484 26.8733 130.327 26.1522 131.849 24.7368C133.371 23.2947 134.119 21.5054 134.119 19.369C134.119 17.2592 133.371 15.5234 131.876 14.108C130.38 12.6926 128.538 11.9715 126.374 11.9715C124.211 11.9715 122.342 12.6926 120.82 14.1347C119.297 15.5501 118.55 17.3394 118.55 19.4491ZM122.823 19.3957C122.823 18.3542 123.17 17.4729 123.837 16.8052C124.505 16.1109 125.333 15.7637 126.321 15.7637C127.309 15.7637 128.164 16.1109 128.831 16.8052C129.499 17.4729 129.846 18.3542 129.846 19.3957C129.846 21.5321 128.351 23.0544 126.348 23.0544C125.36 23.0544 124.505 22.7072 123.837 22.0396C123.17 21.3452 122.823 20.4639 122.823 19.3957Z" fill="#212B36"/>
<path d="M146.114 12.2386C145.9 12.1584 145.633 12.1317 145.286 12.1317C143.39 12.1317 141.867 13.1733 141.253 14.4818H141.226V12.292H137.087V26.5528H141.253V20.5173C141.253 17.9536 142.428 16.2711 145.125 16.2711C145.473 16.2711 145.793 16.2978 146.114 16.3512V12.2386Z" fill="#212B36"/>
<path d="M161.846 20.5707C161.872 20.2503 161.899 19.7429 161.899 19.0752C161.899 16.9655 161.231 15.2296 159.923 13.921C158.614 12.6124 156.905 11.9448 154.795 11.9448C152.739 11.9448 150.95 12.6658 149.454 14.1347C147.985 15.6035 147.237 17.3394 147.237 19.3957C147.237 21.5856 147.985 23.3748 149.481 24.7902C151.003 26.1789 152.846 26.8733 155.062 26.8733C157.973 26.8733 160.003 25.8051 161.205 23.6419L158.187 21.6657C157.546 22.7072 156.264 23.3748 155.009 23.3748C153.22 23.3748 151.724 22.3066 151.484 20.5707H161.846ZM151.591 17.8201C151.671 17.2592 151.991 16.6984 152.552 16.1643C153.113 15.6035 153.834 15.3364 154.688 15.3364C156.584 15.3364 157.626 16.5649 157.733 17.8201H151.591Z" fill="#212B36"/>
</svg>
